<svg width="48" height="48" viewBox="0 0 48 48" fill="none" xmlns="http://www.w3.org/2000/svg">
<path d="M0 24C0 10.7452 10.7452 0 24 0C37.2548 0 48 10.7452 48 24C48 37.2548 37.2548 48 24 48C10.7452 48 0 37.2548 0 24Z" fill="#F4F7FA"/>
<path fill-rule="evenodd" clip-rule="evenodd" d="M24 22.75C23.3108 22.75 22.75 23.3108 22.75 24C22.75 24.6892 23.3108 25.25 24 25.25C24.6892 25.25 25.25 24.6892 25.25 24C25.25 23.3108 24.6892 22.75 24 22.75ZM24 26.9167C22.3917 26.9167 21.0833 25.6083 21.0833 24C21.0833 22.3917 22.3917 21.0833 24 21.0833C25.6083 21.0833 26.9167 22.3917 26.9167 24C26.9167 25.6083 25.6083 26.9167 24 26.9167ZM32.2433 22.5992L31.5875 20.4983C31.4308 19.9942 31.0892 19.5867 30.6267 19.35C30.1758 19.1192 29.6633 19.08 29.1833 19.24L28.9 19.3342C28.4533 19.485 27.955 19.4017 27.5725 19.1142L27.4833 19.0467C27.1192 18.7733 26.9033 18.3275 26.905 17.8558L26.9067 17.6233C26.9083 17.0942 26.7067 16.5983 26.3375 16.2275C25.98 15.8683 25.5075 15.67 25.0058 15.6692L22.8833 15.6667H22.88C21.835 15.6667 20.9817 16.535 20.9775 17.605L20.9767 17.8058C20.975 18.3042 20.7458 18.7742 20.3658 19.0642L20.2583 19.1458C19.8308 19.4708 19.2767 19.5633 18.7775 19.3933C18.3125 19.2342 17.815 19.2683 17.375 19.49C16.925 19.7175 16.5925 20.1125 16.4383 20.6017L15.7583 22.7642C15.4358 23.7908 15.9775 24.8675 16.9917 25.215L17.1283 25.2617C17.56 25.4092 17.9075 25.7858 18.0608 26.2708L18.1067 26.4108C18.2892 26.9492 18.2258 27.5167 17.9142 27.9583C17.3142 28.8108 17.4967 30.0133 18.3217 30.6383L20.0483 31.95C20.38 32.2017 20.7725 32.3333 21.1783 32.3333C21.2742 32.3333 21.3708 32.3267 21.4675 32.3117C21.9775 32.2317 22.425 31.9525 22.7267 31.525L22.9192 31.2517C23.1958 30.8583 23.6183 30.6258 24.1092 30.6125C24.5983 30.585 25.065 30.84 25.3567 31.26L25.455 31.4033C25.7542 31.835 26.2008 32.1183 26.7125 32.2008C27.22 32.2817 27.7258 32.1558 28.1383 31.8442L29.8558 30.5475C30.6842 29.9233 30.8742 28.7167 30.2792 27.8567L30.0617 27.5442C29.7883 27.1492 29.7083 26.635 29.8467 26.1675C29.9975 25.6575 30.3742 25.2575 30.855 25.0958L31.0225 25.04C32.0117 24.7092 32.5592 23.6142 32.2433 22.5992Z" fill="#222222"/>
<mask id="mask0" mask-type="alpha" maskUnits="userSpaceOnUse" x="15" y="15" width="18" height="18">
<path fill-rule="evenodd" clip-rule="evenodd" d="M24 22.75C23.3108 22.75 22.75 23.3108 22.75 24C22.75 24.6892 23.3108 25.25 24 25.25C24.6892 25.25 25.25 24.6892 25.25 24C25.25 23.3108 24.6892 22.75 24 22.75ZM24 26.9167C22.3917 26.9167 21.0833 25.6083 21.0833 24C21.0833 22.3917 22.3917 21.0833 24 21.0833C25.6083 21.0833 26.9167 22.3917 26.9167 24C26.9167 25.6083 25.6083 26.9167 24 26.9167ZM32.2433 22.5992L31.5875 20.4983C31.4308 19.9942 31.0892 19.5867 30.6267 19.35C30.1758 19.1192 29.6633 19.08 29.1833 19.24L28.9 19.3342C28.4533 19.485 27.955 19.4017 27.5725 19.1142L27.4833 19.0467C27.1192 18.7733 26.9033 18.3275 26.905 17.8558L26.9067 17.6233C26.9083 17.0942 26.7067 16.5983 26.3375 16.2275C25.98 15.8683 25.5075 15.67 25.0058 15.6692L22.8833 15.6667H22.88C21.835 15.6667 20.9817 16.535 20.9775 17.605L20.9767 17.8058C20.975 18.3042 20.7458 18.7742 20.3658 19.0642L20.2583 19.1458C19.8308 19.4708 19.2767 19.5633 18.7775 19.3933C18.3125 19.2342 17.815 19.2683 17.375 19.49C16.925 19.7175 16.5925 20.1125 16.4383 20.6017L15.7583 22.7642C15.4358 23.7908 15.9775 24.8675 16.9917 25.215L17.1283 25.2617C17.56 25.4092 17.9075 25.7858 18.0608 26.2708L18.1067 26.4108C18.2892 26.9492 18.2258 27.5167 17.9142 27.9583C17.3142 28.8108 17.4967 30.0133 18.3217 30.6383L20.0483 31.95C20.38 32.2017 20.7725 32.3333 21.1783 32.3333C21.2742 32.3333 21.3708 32.3267 21.4675 32.3117C21.9775 32.2317 22.425 31.9525 22.7267 31.525L22.9192 31.2517C23.1958 30.8583 23.6183 30.6258 24.1092 30.6125C24.5983 30.585 25.065 30.84 25.3567 31.26L25.455 31.4033C25.7542 31.835 26.2008 32.1183 26.7125 32.2008C27.22 32.2817 27.7258 32.1558 28.1383 31.8442L29.8558 30.5475C30.6842 29.9233 30.8742 28.7167 30.2792 27.8567L30.0617 27.5442C29.7883 27.1492 29.7083 26.635 29.8467 26.1675C29.9975 25.6575 30.3742 25.2575 30.855 25.0958L31.0225 25.04C32.0117 24.7092 32.5592 23.6142 32.2433 22.5992Z" fill="white"/>
</mask>
<g mask="url(#mask0)">
</g>
</svg>
